<svg width="40" height="40" viewBox="0 0 40 40" fill="none" xmlns="http://www.w3.org/2000/svg">
<path d="M33.9999 5H15.4141C14.5232 5 14.077 6.07714 14.707 6.70711L33.2928 25.2929C33.9228 25.9229 34.9999 25.4767 34.9999 24.5858V6C34.9999 5.44772 34.5522 5 33.9999 5Z" fill="#BECAF7"/>
<path d="M29.0001 9H2.35941C1.47639 9 1.02674 10.0609 1.64081 10.6954L28.2815 38.2241C28.9066 38.87 30.0001 38.4275 30.0001 37.5287V10C30.0001 9.44772 29.5524 9 29.0001 9Z" fill="#254FE4"/>
<path fill-rule="evenodd" clip-rule="evenodd" d="M30 22V10C30 9.44772 29.5523 9 29 9H17L30 22Z" fill="#0B133B"/>
</svg>
