<svg width="40" height="40" viewBox="0 0 40 40" fill="none" xmlns="http://www.w3.org/2000/svg">
<path d="M29.0747 35.509C29.627 35.509 30.0767 35.0612 30.0556 34.5093C29.9373 31.4245 29.2723 28.3824 28.0889 25.5255C26.7778 22.3603 24.8561 19.4843 22.4336 17.0618C20.0111 14.6392 17.1351 12.7176 13.9699 11.4065C11.113 10.2231 8.07088 9.55812 4.9861 9.43982C4.43422 9.41865 3.98633 9.86837 3.98633 10.4207V34.509C3.98633 35.0613 4.43404 35.509 4.98633 35.509H29.0747Z" fill="#BECAF7"/>
<path d="M16.5801 35.5097C16.0278 35.5097 15.5775 35.0617 15.6047 34.5101C15.7193 32.187 16.2326 29.8982 17.1246 27.7447C18.1444 25.2829 19.639 23.046 21.5232 21.1618C23.4074 19.2776 25.6442 17.783 28.106 16.7633C30.2595 15.8713 32.5483 15.358 34.8715 15.2434C35.4231 15.2162 35.8711 15.6665 35.8711 16.2187V34.5097C35.8711 35.062 35.4233 35.5097 34.8711 35.5097H16.5801Z" fill="#254FE4"/>
<path fill-rule="evenodd" clip-rule="evenodd" d="M28.0877 25.526C29.3988 28.6912 30.0736 32.0836 30.0736 35.5096H15.5801C15.5801 32.845 16.1049 30.2065 17.1246 27.7448C18.1444 25.283 19.639 23.0461 21.5232 21.1619C22.3349 20.3502 23.2121 19.6107 24.1445 18.9504C25.7726 20.9325 27.1025 23.1476 28.0877 25.526Z" fill="#0B133B"/>
</svg>
