<svg width="41" height="40" viewBox="0 0 41 40" fill="none" xmlns="http://www.w3.org/2000/svg">
<path d="M9.62547 13.9655C15.8288 7.76215 25.8865 7.76215 32.0898 13.9655L38.8721 20.7478C39.6531 21.5288 39.6531 22.7951 38.8721 23.5762L32.0898 30.3584C25.8865 36.5618 15.8288 36.5618 9.62547 30.3584L2.84323 23.5762C2.06218 22.7951 2.06218 21.5288 2.84323 20.7478L9.62547 13.9655Z" fill="#BECAF7"/>
<path fill-rule="evenodd" clip-rule="evenodd" d="M21.0721 25.1672C26.644 25.1672 31.161 20.6502 31.161 15.0782C31.161 14.3345 31.0805 13.6095 30.9278 12.9116C25.2625 8.25672 17.1296 8.11773 11.317 12.4946C11.0992 13.3192 10.9832 14.1852 10.9832 15.0782C10.9832 20.6502 15.5001 25.1672 21.0721 25.1672Z" fill="#0B133B"/>
<path fill-rule="evenodd" clip-rule="evenodd" d="M11.3169 12.4944C17.1296 8.11765 25.2625 8.25681 30.9277 12.9119C29.9364 8.381 25.9003 4.98926 21.0719 4.98926C16.3931 4.98926 12.4581 8.17425 11.3169 12.4944Z" fill="#254FE4"/>
</svg>
