<svg width="41" height="40" viewBox="0 0 41 40" fill="none" xmlns="http://www.w3.org/2000/svg">
<path d="M4.09479 16.0681C4.09479 8.88841 9.91509 3.06812 17.0948 3.06812C24.2745 3.06812 30.0948 8.88841 30.0948 16.0681V27.8863C30.0948 28.539 29.5657 29.0681 28.913 29.0681H17.0948C9.91509 29.0681 4.09479 23.2478 4.09479 16.0681Z" fill="#BECAF7"/>
<path d="M37.0948 28.5681C37.0948 33.2625 33.2892 37.0681 28.5948 37.0681C23.9004 37.0681 20.0948 33.2625 20.0948 28.5681L20.0948 20.8408C20.0948 20.4141 20.4407 20.0681 20.8675 20.0681L28.5948 20.0681C33.2892 20.0681 37.0948 23.8737 37.0948 28.5681Z" fill="#254FE4"/>
<path fill-rule="evenodd" clip-rule="evenodd" d="M20.1094 29.0684C20.0998 28.9029 20.095 28.7362 20.095 28.5684L20.095 20.8411C20.095 20.4143 20.4409 20.0684 20.8677 20.0684L28.595 20.0684C29.1068 20.0684 29.6081 20.1136 30.095 20.2003L30.095 27.8865C30.095 28.5392 29.5659 29.0684 28.9132 29.0684L20.1094 29.0684Z" fill="#0B133B"/>
</svg>
